<?xml version="1.0" encoding="utf-8" ?><svg xmlns="http://www.w3.org/2000/svg" xmlns:xlink="http://www.w3.org/1999/xlink" width="449" height="551" viewBox="0 0 449 551"><defs><linearGradient id="gradient_0" gradientUnits="userSpaceOnUse" x1="201.06412" y1="430.41034" x2="246.4472" y2="58.074051"><stop offset="0" stop-color="#0B2155"/><stop offset="1" stop-color="#306291"/></linearGradient></defs><path fill="url(#gradient_0)" d="M83.1799 36.6877C94.4519 31.4075 105.795 32.0124 117.867 32.0093L145.234 32.0088L228.526 31.9999L309.547 32.0831L335.222 32.0556C347.869 32.0218 355.364 31.4812 367.468 35.8466C383.705 41.8552 396.888 54.0727 404.113 69.8077C412.149 87.0968 410.721 98.5504 410.761 117.095C410.778 125.437 410.966 134.464 410.729 142.756C410.944 146.048 410.761 151.888 410.759 155.319L410.755 179.754L410.753 256.008L410.755 324.13L410.776 345.888C410.778 347.411 410.719 349.123 410.78 350.614C411.887 380.306 393.66 407.825 364.84 416.368C353.524 419.722 346.14 419.25 334.574 419.237L307.498 419.211L220.613 419.227L142.589 419.233L117.63 419.245C112.976 419.248 108.206 419.384 103.568 419.116C76.8024 417.538 53.6743 399.647 44.9554 374.361C41.6699 364.832 41.7896 356.526 41.6015 346.662C41.4492 339.43 41.3934 332.197 41.4341 324.964L41.385 285.298L41.417 184.201L41.4415 123.89L41.4376 104.666C41.4384 103.218 41.4832 101.691 41.4429 100.269C40.916 81.6771 48.7089 63.1658 62.053 50.2229C67.6493 44.7948 75.5198 39.221 83.1799 36.6877ZM400.52 90.034C399.661 87.7033 399.11 83.9448 398.344 81.2472C392.552 60.8539 372.359 43.4465 351.109 41.6283C340.258 40.6999 327.442 41.2291 316.384 41.2262L247.112 41.4666L151.607 41.4634L120.272 41.4611C110.305 41.4636 101.472 40.7251 91.7718 43.5724C68.5928 50.2566 51.7288 72.3955 50.9837 96.4769C50.8762 99.9524 50.9135 103.447 50.9157 106.925L50.9365 127.613L51.0004 193.035L51.0029 300.789L51.0023 332.723C51.0043 344.247 50.1676 357.033 53.2397 368.145C59.2871 390.019 79.0216 407.106 101.755 409.183C106.372 409.604 111.185 409.464 115.819 409.467L137.02 409.466L204.165 409.476L299.233 409.444L330.965 409.45C336.408 409.452 342.761 409.644 348.115 409.396C352.87 409.154 357.576 408.32 362.124 406.912C383.907 400.312 399.463 379.606 400.96 357.226C401.235 353.118 401.172 349.01 401.173 344.896L401.173 325.206L401.154 262.182L401.151 165.329C401.153 143.193 401.219 121.012 401.122 98.8738C401.109 95.6958 400.611 92.9199 400.52 90.034Z"/><defs><linearGradient id="gradient_1" gradientUnits="userSpaceOnUse" x1="221.16316" y1="389.02264" x2="227.90019" y2="180.95686"><stop offset="0" stop-color="#071D4F"/><stop offset="1" stop-color="#295580"/></linearGradient></defs><path fill="url(#gradient_1)" d="M103.562 119.697C103.62 113.597 110.859 106.357 116.482 105.264C122.598 104.075 130.783 104.473 137.166 104.476C147.278 104.46 157.389 104.502 167.5 104.603C167.55 107.018 167.598 109.033 167.445 111.451C153.535 111.696 139.647 111.413 125.617 111.473C118.851 111.503 112.292 111.663 110.958 120.363C110.45 123.676 110.775 127.899 110.792 131.305L110.839 149.766L110.836 198.573C110.827 207.201 111.004 216.711 110.721 225.282C110.694 226.222 110.637 226.576 110.468 227.507C108.209 230.72 94.4237 227.122 90.1959 229.758C83.9722 233.637 85.6922 240.802 85.6295 247.431C85.1555 297.477 112.317 344.966 156.716 368.563C166.903 373.849 177.639 378.003 188.73 380.951C204.763 385.336 205.558 379.983 219.539 372.003C213.813 369.384 208.294 366.509 202.297 364.377C196.526 362.324 190.507 360.645 184.627 358.899C180.954 362.34 178.028 364.349 172.962 365.416C169.107 366.229 155.07 364.102 154.366 359.804C155.595 355.414 167.867 353.919 171.93 353.87C167.559 351.792 162.532 349.559 158.679 346.707C156.446 348.255 154.113 349.384 151.416 349.807C144.995 350.816 138.919 348.844 133.737 345.06C132.658 344.273 130.669 342.907 130.453 341.489C130.383 341.026 130.501 340.46 130.864 340.234C134.674 337.863 142.669 338.013 146.618 338.351C143.364 335.425 140.006 332.443 137.063 329.202C127.875 331.475 121.156 328.866 114.686 322.132C113.55 320.95 111.856 319.507 111.681 317.822C113.48 314.465 124.588 317.595 127.649 318.407C125.638 315.002 123.028 311.235 120.863 307.807C114.018 308.833 107.423 304.868 103.469 299.503C102.36 297.998 97.8854 292.251 100.01 290.714C103.896 290.122 111.528 294.278 114.969 296.486C113.701 292.557 111.759 288.008 110.323 283.923C107.261 283.762 103.329 281.876 100.994 279.955C95.8579 275.73 93.9984 269.523 93.3157 263.185C102.119 265.663 102.274 267.212 108.265 273.437C107.497 271.037 106.813 266.521 105.988 264.717C102.783 257.706 100.54 252.303 102.966 244.472C103.51 242.716 105 238.571 106.786 237.56L107.381 237.773C114.137 246.323 113.48 254.478 110.634 263.376C110.288 264.459 111.61 271.236 111.902 273.09C112.555 269.335 113.45 266.096 115.661 262.91C116.649 261.486 120.681 256.715 122.489 258.072C123.008 259.278 123.259 262.952 123.235 264.362C123.09 272.633 120.471 276.818 114.922 282.384C115.406 284.269 118.451 292.707 119.304 294.258C119.411 294.142 119.518 294.026 119.626 293.91C119.598 288.577 120.867 283.187 124.394 279.056C124.985 278.364 125.478 278.318 126.276 278.332C128.961 280.161 130.017 290.512 129.606 293.87C129.093 298.068 127.316 300.95 125.079 304.357C127.231 308.628 129.257 311.524 132.037 315.445C130.921 308.3 131.56 303.28 135.271 297.039C142.9 307.549 143.938 312.88 140.437 324.875C142.076 327.35 147.102 331.59 149.464 333.599C147.196 327.925 146.974 320.998 148.406 315.087C150.94 316.938 153.216 319.118 155.175 321.571C160.152 327.705 162.075 333.926 161.277 341.779C165.047 344.17 168.227 346.053 172.117 348.242C168.945 343.36 166.858 337.853 165.997 332.095C165.844 331.017 165.774 330.437 166.41 329.584C167.05 329.433 166.866 329.41 167.683 329.934C179.093 337.245 182.442 339.648 185.72 352.642C191.771 354.893 198.894 356.649 205.149 358.864C213.181 361.709 218.55 364.3 225.988 368.204C231.151 365.583 235.398 363.187 240.82 360.937C249.234 357.447 257.408 355.506 265.905 352.765C268.026 341.27 274.803 333.846 285.75 329.738C285.264 336.932 283.907 342.206 279.549 348.114C283.183 346.056 286.9 344.089 290.555 342.056C290.322 335.453 290.73 328.746 295.149 323.439C296.764 321.5 300.974 316.608 303.331 315.799C306.725 317.106 303.333 331.041 302.37 334.237C305.49 331.28 308.04 328.263 311.477 325.25C306.138 315.377 311.231 305.279 316.796 296.999C320.422 303.42 320.977 308.448 320.049 315.577C322.467 312.084 324.53 308.573 326.646 304.894C323.745 299.342 321.063 294.289 322.329 287.757C322.768 285.491 323.838 279.726 325.373 278.104C326.969 277.679 327.61 279.102 328.423 280.264C331.284 284.357 331.92 288.421 332.838 293.222C334.661 289.569 335.768 286.506 337.071 282.66C331.685 277.648 328.446 271.124 328.869 263.675C329.062 260.282 328.121 255.583 333.02 259.2C337.658 262.625 338.974 267.449 339.848 272.902C340.24 270.69 341.686 265.422 341.353 263.548C340.709 259.917 339.3 258.269 339.205 254.106C339.045 247.13 340.871 242.101 345.447 236.973C349.847 243.304 351.165 251.141 348.796 258.602C348.258 260.298 346.594 262.213 346.124 263.918C345.201 267.265 344.785 270.547 343.733 273.892C347.05 269.664 349.844 265.77 355.173 264.032C356.457 263.614 357.902 262.754 359.004 263.665C359.454 266.581 356.385 273.8 354.486 276.297C350.919 280.985 347.209 283.128 341.518 284.071C340.306 288.227 338.554 292.106 337.456 296.29C337.659 296.087 337.864 295.888 338.072 295.691C342.342 291.643 347.434 290.787 353.031 290.92C349.509 301.887 342.714 308.054 331.076 307.779C328.653 311.714 326.363 315.688 323.385 319.219C329.307 316.522 334.363 315.625 340.731 317.163C336.313 327.438 325.298 332.258 314.62 329.475C310.75 333.805 308.137 335.988 303.499 339.336C310.712 337.383 315.273 337.466 322.137 340.97C317.35 349.483 301.091 353.652 293.339 346.601C289.579 349.132 284.972 351.606 280.947 353.743C284.993 353.825 295.985 356.499 297.936 359.949C297.901 360.565 297.886 360.975 297.269 361.354C287.586 367.283 274.988 367.738 267.19 358.72C263.889 359.984 259.231 361.226 255.724 362.417C247.212 365.307 240.123 367.97 232.212 372.137C238.254 374.536 245.883 382.432 252.817 382.579C257.288 382.674 262.235 381.258 266.603 380.112C328.582 363.858 369.275 304.488 366.188 241.212C366.082 239.041 366.32 237.566 365.815 235.287C364.127 227.656 358.063 228.625 351.978 228.62C348.343 228.621 344.954 228.618 341.492 228.618C340.99 222.691 341.253 214.761 341.218 208.729C341.197 205.026 341.042 197.903 341.348 194.385C342.029 192.941 341.817 187.963 341.82 186.024C342.016 187.491 341.943 189.307 342.485 190.576C343.61 190.158 343.908 190.008 344.199 188.822C344.367 189.405 344.516 189.871 344.716 190.445C345.817 190.207 346.569 188.809 347.174 187.886L347.147 188.099C347.867 186.647 347.762 186.905 347.747 185.457L347.74 184.921C347.694 186.828 347.689 188.755 348.353 190.59C348.541 193.49 348.378 198.279 348.37 201.294C348.332 208.198 348.344 215.103 348.407 222.007C352.903 221.794 361.006 221.313 364.958 223.42C374.557 228.702 372.672 237.856 372.829 246.75C373.267 271.502 367.964 293.349 356.686 315.529C339.846 348.061 310.966 372.728 276.203 384.272C268.632 386.731 255.794 390.639 248.189 388.611C240.945 386.679 233.049 379.298 226.151 375.772C219.625 378.317 212.462 385.542 205.676 387.899C197.016 390.907 185.395 387.252 177.013 384.502C151.618 376.184 129.091 360.858 112.028 340.292C93.1957 317.403 81.8386 289.287 79.4896 259.739C78.9886 253.531 79.5304 246.635 79.0854 240.659C77.838 223.905 89.3881 220.338 103.575 221.906C103.022 216.952 103.31 206.003 103.302 200.572L103.285 158.831L103.251 132.767C103.248 130.034 103.083 122.063 103.562 119.697Z"/><path fill="#2F638F" d="M103.562 119.697C103.62 113.597 110.859 106.357 116.482 105.264C122.598 104.075 130.783 104.473 137.166 104.476C147.278 104.46 157.389 104.502 167.5 104.603C167.55 107.018 167.598 109.033 167.445 111.451C153.535 111.696 139.647 111.413 125.617 111.473C118.851 111.503 112.292 111.663 110.958 120.363C110.45 123.676 110.775 127.899 110.792 131.305L110.839 149.766L110.836 198.573C110.827 207.201 111.004 216.711 110.721 225.282C110.294 223.92 110.365 215.178 110.344 213.179L110.167 174.771C109.713 176.232 110.333 187.84 109.911 190.325C109.84 188.902 109.343 183.218 108.522 182.346C108.05 182.887 108.335 182.679 107.593 182.922C106.752 182.305 106.527 182.149 105.576 181.732L105.232 181.875C104.98 182.874 104.541 183.337 104.479 184.259C104.037 177.64 104.242 169.926 104.248 163.202L104.096 140.517C104.107 135.486 104.402 130.345 104.182 125.322C104.108 123.634 103.735 121.488 103.562 119.697Z"/><defs><linearGradient id="gradient_2" gradientUnits="userSpaceOnUse" x1="234.83055" y1="142.52463" x2="238.88652" y2="94.176178"><stop offset="0" stop-color="#959DC0"/><stop offset="1" stop-color="#C6D0DE"/></linearGradient></defs><path fill="url(#gradient_2)" d="M258.639 94.0465C259.562 92.8711 260.741 91.4086 262.127 90.8216C263.596 91.636 263.389 95.5125 265.344 96.6922C267.429 97.9499 273.659 97.647 274.162 100.445C274.689 103.378 275.138 114.054 273.809 116.64C272.809 118.587 267.098 118.934 264.858 119.753C263.878 122.017 262.896 124.393 261.8 126.594C263.428 129.348 265.446 132.293 266.216 135.355C264.692 138.633 257.173 146.058 254.07 147.761C250.663 146.729 248.905 145.208 246.11 142.985C244.626 143.335 240.257 145.714 237.499 146.539C237.156 148.418 236.237 155.932 233.959 156.189C229.431 156.698 221.918 157.141 217.576 155.881C216.22 155.487 214.903 147.806 214.595 146.312C211.917 145.709 208.955 144.281 206.443 143.112C204.774 144.337 200.993 147.189 199.3 147.578C196.253 148.277 186.53 137.355 186.059 135.047C186.639 133.231 192.674 127.03 194.313 125.329C195.028 125.263 195.165 125.275 195.76 124.806L196.007 125.177C197.723 127.725 198.978 128.36 201.635 129.953C202.861 129.48 203.852 129.105 205.116 128.725C205.396 128.914 205.517 128.956 205.735 129.203C202.811 132.704 199.533 135.803 196.607 139.164C197.584 139.992 198.341 140.711 199.472 141.322C200.425 140.311 201.454 138.796 202.493 137.714C205.457 134.629 208.61 131.154 211.845 128.392C212.567 127.421 213.433 126.429 214.213 125.494C223.95 129.994 231.724 131.36 240.372 123.202C245.695 118.181 246.582 113.984 246.743 106.864C247.52 104.672 248.672 103.82 250.477 102.478C253.929 99.9109 256.094 97.4432 258.639 94.0465Z"/><path fill="#0C2B5E" d="M194.313 125.329C195.028 125.263 195.165 125.275 195.76 124.806L196.007 125.177C197.723 127.725 198.978 128.36 201.635 129.953C202.861 129.48 203.852 129.105 205.116 128.725C205.396 128.914 205.517 128.956 205.735 129.203C202.811 132.704 199.533 135.803 196.607 139.164C197.584 139.992 198.341 140.711 199.472 141.322L199.559 141.521C200.628 141.139 204.382 138.191 206.037 137.229C205.969 137.248 211.549 137.695 211.554 137.696C216.458 139.166 221.359 140.634 226.344 141.822C228.59 142.353 230.852 141.35 233.019 142.955C234.493 142.02 243.304 139.065 245.591 137.598C246.111 137.264 247.031 137.983 247.544 138.302L247.479 138.475C246.617 140.746 246.007 140.438 246.11 142.985C244.626 143.335 240.257 145.714 237.499 146.539C237.156 148.418 236.237 155.932 233.959 156.189C229.431 156.698 221.918 157.141 217.576 155.881C216.22 155.487 214.903 147.806 214.595 146.312C211.917 145.709 208.955 144.281 206.443 143.112C204.774 144.337 200.993 147.189 199.3 147.578C196.253 148.277 186.53 137.355 186.059 135.047C186.639 133.231 192.674 127.03 194.313 125.329Z"/><path fill="#9993C1" d="M206.037 137.229C205.969 137.248 211.549 137.695 211.554 137.696C216.458 139.166 221.359 140.634 226.344 141.822C228.59 142.353 230.852 141.35 233.019 142.955C232.875 144.676 231.672 149.503 231.198 151.267C227.76 151.498 224.309 151.491 220.872 151.245C220.314 148.477 219.765 145.366 218.686 142.779C217.734 142.311 216.677 142.001 215.682 141.629C212.36 140.384 209.209 138.815 206.037 137.229Z"/><defs><linearGradient id="gradient_3" gradientUnits="userSpaceOnUse" x1="245.46333" y1="142.29054" x2="272.57306" y2="98.23275"><stop offset="0" stop-color="#0E2D60"/><stop offset="1" stop-color="#34668F"/></linearGradient></defs><path fill="url(#gradient_3)" d="M258.639 94.0465C259.562 92.8711 260.741 91.4086 262.127 90.8216C263.596 91.636 263.389 95.5125 265.344 96.6922C267.429 97.9499 273.659 97.647 274.162 100.445C274.689 103.378 275.138 114.054 273.809 116.64C272.809 118.587 267.098 118.934 264.858 119.753C263.878 122.017 262.896 124.393 261.8 126.594C263.428 129.348 265.446 132.293 266.216 135.355C264.692 138.633 257.173 146.058 254.07 147.761C250.663 146.729 248.905 145.208 246.11 142.985C246.007 140.438 246.617 140.746 247.479 138.475L247.544 138.302C249.565 139.838 250.94 140.771 253.083 142.112C255.833 140.092 258.284 137.285 260.35 134.594C256.527 128.242 254.979 127.521 258.781 120.368C259.369 119.26 260.264 116.685 260.76 115.388C263.837 114.573 266.514 114.164 269.679 113.152C269.867 109.77 269.796 106.378 269.466 103.006C262.076 100.437 260.176 104.043 258.639 94.0465Z"/><defs><linearGradient id="gradient_4" gradientUnits="userSpaceOnUse" x1="232.98558" y1="132.84264" x2="230.86336" y2="105.38638"><stop offset="0" stop-color="#193766"/><stop offset="1" stop-color="#315C82"/></linearGradient></defs><path fill="url(#gradient_4)" d="M251.347 102.726C252.399 110.266 251.753 117.633 246.822 124.021C239.097 134.028 223.343 137.123 212.621 130.175C211.76 129.616 211.761 129.356 211.845 128.392C212.567 127.421 213.433 126.429 214.213 125.494C223.95 129.994 231.724 131.36 240.372 123.202C245.695 118.181 246.582 113.984 246.743 106.864L247.071 107.611C247.668 106.859 247.505 106.501 247.851 106.112C248.852 104.987 250.228 103.733 251.347 102.726Z"/><path fill="#0C2B5E" d="M259.989 242.54C265.903 242.55 272.793 242.721 278.628 242.474C278.5 246.349 278.538 251.186 278.635 255.064C271.37 254.503 262.654 255.117 255.273 254.876C252.056 254.771 248.893 254.99 245.632 254.584C245.795 258.211 245.787 263.444 245.684 267.06C254.705 266.692 265.612 267.069 274.846 266.993C274.984 271.06 274.866 275.204 274.798 279.278C266.329 278.35 254.092 279.697 245.63 278.796C245.544 283.257 245.577 287.791 245.516 292.268C248.333 292.036 252.957 292.16 255.908 292.15C263.894 292.183 271.879 292.169 279.864 292.109C280.102 295.599 279.876 301.123 279.83 304.731C272.851 304.446 265.03 304.574 257.993 304.568C248.754 304.528 239.515 304.548 230.277 304.629C229.713 284.184 230.749 262.657 230.038 242.471C232.52 242.801 237.655 242.61 240.42 242.6L259.989 242.54Z"/><defs><linearGradient id="gradient_5" gradientUnits="userSpaceOnUse" x1="244.89813" y1="231.41081" x2="231.71454" y2="166.52339"><stop offset="0" stop-color="#07A6D3"/><stop offset="1" stop-color="#02CBE6"/></linearGradient></defs><path fill="url(#gradient_5)" d="M214.774 168.821C226.569 169.311 238.724 168.718 250.557 168.972C254.157 169.05 258.126 169.066 261.693 168.873C261.585 172.851 261.653 177 261.663 180.992C251.356 180.436 240.052 181.068 229.662 180.851C229.848 183.319 229.949 190.696 229.767 193.03C239.104 193.097 248.441 193.081 257.778 192.981C258.109 196.04 257.971 201.1 257.959 204.332C250.819 204.797 239.649 204.338 232.1 204.415C231.347 204.423 230.228 204.276 229.45 204.198C229.888 206.378 229.746 214.31 229.748 217.044L262.849 216.927L262.832 229.019C247.454 228.75 229.949 228.77 214.566 229.058C214.489 223.688 214.073 170.484 214.774 168.821Z"/><path fill="#04B9DC" d="M272.423 168.888C274.493 168.983 276.676 168.997 278.749 168.98C292.009 168.872 305.314 169.131 318.571 168.979C318.84 172.672 318.71 177.192 318.693 180.954C309.752 180.429 296.376 180.87 287.154 180.853C287.456 184.07 287.283 189.881 287.255 193.194C290.038 192.861 293.897 193.019 296.764 192.996C302.939 192.948 309.161 193.136 315.334 192.916C315.373 195.232 315.724 202.27 314.977 204.012C313.016 204.816 292.807 204.45 289.402 204.456C288.454 204.411 288.216 204.339 287.348 204.647C287.019 205.8 287.275 215.346 287.266 217.124L320.127 217.108C320.338 220.719 320.177 225.134 320.345 228.981L272.508 228.964C272.463 209.829 271.769 187.848 272.423 168.888Z"/><path fill="#9993C1" d="M319.03 242.707C323.683 242.502 323.019 244.935 322.921 248.658C322.785 256.311 321.639 263.912 319.511 271.265C310.93 300.637 291.337 322.238 263.391 334.25C250.69 339.709 238.601 343.137 226.169 349.951C213.766 342.639 198.112 338.407 184.926 332.365C178.108 329.163 171.664 325.217 165.712 320.599C149.351 307.961 137.679 290.24 132.371 270.126C130.907 264.581 130.243 258.659 129.515 252.967C129.336 250.346 128.693 246.273 129.816 243.846C130.725 241.882 134.912 243.199 135.02 244.923C135.803 257.371 138.108 269.901 142.903 281.472C153.019 304.465 173.386 322.707 197.327 330.331C205.844 333.043 218.465 337.935 225.726 342.981C227.1 342.367 228.624 341.56 229.932 340.797C240.157 334.639 252.234 332.109 262.953 327.135C275.471 321.328 287.287 313.621 295.506 302.356C297.491 299.635 299.844 296.973 301.703 294.173C309.418 282.548 314.212 269.038 316.103 255.239C316.546 252.008 315.822 246.994 316.916 244.029C317.578 243.253 318.084 243.126 319.03 242.707Z"/><defs><linearGradient id="gradient_6" gradientUnits="userSpaceOnUse" x1="215.14482" y1="118.10014" x2="212.51506" y2="66.151123"><stop offset="0" stop-color="#C2C7D9"/><stop offset="1" stop-color="#DEE6ED"/></linearGradient></defs><path fill="url(#gradient_6)" d="M215.072 69.6243C215.457 67.2513 215.867 64.1289 216.695 61.875C217.385 59.999 221.009 60.123 222.897 60.1719C226.389 60.2622 231.13 59.6924 234.364 61.0139C235.588 61.514 237.11 68.2411 237.605 69.7136C242.691 71.2798 243.707 73.2507 249.685 72.8921C249.109 73.0035 248.648 73.1304 248.06 73.0905L247.799 73.3799L249.186 73.5148L249.489 73.9095C249.161 75.424 246.763 77.6205 245.589 78.8277C244.66 83.0771 240.352 84.8608 239.595 86.3974C238.376 87.8278 237.33 89.6307 235.394 89.7832C230.677 87.2571 226.047 86.7818 220.857 88.1728C215.879 89.507 209.916 94.2495 207.627 98.8437C204.202 105.719 207.248 106.062 201.069 111.9C197.889 115.329 196.091 117.651 193.199 121.018C192.816 121.569 192.423 122.113 192.023 122.651C191.336 123.562 191.085 123.924 190.044 124.065C189.139 123.437 188.649 121.662 188.02 120.609C186.806 118.574 179.037 118.896 178.25 116.232C176.959 111.861 177.399 104.676 178.236 100.176C178.657 97.9183 184.704 97.8877 186.365 97.1441C188.164 96.3418 189.751 91.0964 190.546 89.1464C184.926 78.9288 184.672 81.6265 193.244 72.474C199.001 66.3272 200.551 69.0025 206.629 73.2095C209.482 71.851 212.132 70.7944 215.072 69.6243Z"/><defs><linearGradient id="gradient_7" gradientUnits="userSpaceOnUse" x1="216.89293" y1="119.04816" x2="209.06357" y2="62.13168"><stop offset="0" stop-color="#1C3E69"/><stop offset="1" stop-color="#39769F"/></linearGradient></defs><path fill="url(#gradient_7)" d="M215.072 69.6243C215.457 67.2513 215.867 64.1289 216.695 61.875C217.385 59.999 221.009 60.123 222.897 60.1719C226.389 60.2622 231.13 59.6924 234.364 61.0139C235.588 61.514 237.11 68.2411 237.605 69.7136C242.691 71.2798 243.707 73.2507 249.685 72.8921C249.109 73.0035 248.648 73.1304 248.06 73.0905L247.799 73.3799L249.186 73.5148L249.489 73.9095C249.161 75.424 246.763 77.6205 245.589 78.8277C243.051 77.6096 240.993 76.6452 238.361 75.6622C237.179 75.2212 234.302 74.3055 233.363 73.8449C232.487 71.0274 231.976 68.0208 231.068 65.3695C227.695 64.9996 224.036 65.1938 220.639 65.3614C219.457 73.3482 220.593 73.7958 212.253 76.2016C210.73 76.6408 208.059 78.252 206.233 78.8384C203.87 77.6206 201.362 75.7545 199.154 74.2179C196.782 76.2502 193.875 78.9037 192.043 81.4121C193.386 84.255 195.339 86.4912 196.442 89.065C194.9 92.4212 193.086 96.6046 191.92 99.9975C191.335 101.702 184.879 102.653 182.786 103.359C182.645 106.409 182.583 109.961 182.733 113.018C188.689 114.939 192.768 113.847 193.199 121.018C192.816 121.569 192.423 122.113 192.023 122.651C191.336 123.562 191.085 123.924 190.044 124.065C189.139 123.437 188.649 121.662 188.02 120.609C186.806 118.574 179.037 118.896 178.25 116.232C176.959 111.861 177.399 104.676 178.236 100.176C178.657 97.9183 184.704 97.8877 186.365 97.1441C188.164 96.3418 189.751 91.0964 190.546 89.1464C184.926 78.9288 184.672 81.6265 193.244 72.474C199.001 66.3272 200.551 69.0025 206.629 73.2095C209.482 71.851 212.132 70.7944 215.072 69.6243Z"/><path fill="#2F638F" d="M201.069 111.9C200.595 111.141 200.534 110.356 200.462 109.468C199.945 103.054 202.166 96.5459 206.301 91.6615C210.895 86.3076 217.434 83.0052 224.469 82.4847C229.193 82.1433 235.949 83.2459 239.595 86.3974C238.376 87.8278 237.33 89.6307 235.394 89.7832C230.677 87.2571 226.047 86.7818 220.857 88.1728C215.879 89.507 209.916 94.2495 207.627 98.8437C204.202 105.719 207.248 106.062 201.069 111.9Z"/><path fill="#0C2B5E" d="M173.262 242.472C175.805 242.751 181.858 242.58 184.71 242.58L207.287 242.561C211.451 242.549 217.17 242.377 221.174 242.723C221.518 245.521 221.422 251.785 221.451 254.875C213.901 254.545 206.098 254.83 198.52 254.734C195.375 254.694 191.864 254.854 188.755 254.616C189.039 258.542 188.863 265.695 188.807 269.782C194.674 269.617 200.946 269.836 206.855 269.753C209.139 269.721 215.437 269.601 217.266 269.894C217.781 270.602 217.664 271.651 217.683 272.574L217.629 282.52C208.83 282.006 196.749 282.808 188.642 281.99C189.15 288.254 188.833 298.298 188.799 304.697C183.717 304.639 178.369 304.491 173.311 304.691C172.867 289.338 173.416 273.796 173.179 258.423C173.105 253.59 172.856 247.248 173.262 242.472Z"/><defs><linearGradient id="gradient_8" gradientUnits="userSpaceOnUse" x1="207.05875" y1="135.81493" x2="276.77295" y2="58.923355"><stop offset="0" stop-color="#1D4070"/><stop offset="1" stop-color="#3A88B2"/></linearGradient></defs><path fill="url(#gradient_8)" d="M249.201 66.4729C257.824 64.045 270.147 60.2917 278.71 58.6978C277.849 62.9562 273.767 86.8948 272.78 88.2461C270.98 88.8282 266.275 83.0878 264.956 81.6035C257.537 89.6303 249.645 97.9783 242.373 106.07L234.899 114.467C233.469 116.096 231.292 118.735 229.7 120.082C226.986 117.469 223.988 114.671 221.485 111.893C216.615 118.669 210.927 123.048 205.735 129.203C205.517 128.956 205.396 128.914 205.116 128.725C203.852 129.105 202.861 129.48 201.635 129.953C198.978 128.36 197.723 127.725 196.007 125.177L195.76 124.806C195.165 125.275 195.028 125.263 194.313 125.329C196.49 122.477 203.172 115.609 205.908 112.609L215.372 102.249C217.193 100.262 219.561 97.5302 221.548 95.8478C224.146 98.2996 227.007 101.04 229.34 103.725C230.891 101.643 236.054 95.7565 238.019 93.9281C237.704 92.0903 236.631 91.1291 235.394 89.7832C237.33 89.6307 238.376 87.8278 239.595 86.3974C240.352 84.8608 244.66 83.0771 245.589 78.8277C246.763 77.6205 249.161 75.424 249.489 73.9095L249.186 73.5148L247.799 73.3799L248.06 73.0905C248.648 73.1304 249.109 73.0035 249.685 72.8921L249.888 72.8297C251.444 72.336 251.622 72.2461 252.375 70.8198C251.703 68.9287 250.26 68.1365 249.201 66.4729Z"/><path fill="#EDF2F5" d="M252.375 70.8198L252.528 70.1367C253.613 70.4738 255.984 72.9215 256.91 73.7935C251.414 79.6201 246.114 85.6278 240.636 91.4705C239.776 92.3869 238.958 93.3576 238.017 94.192L238.019 93.9281C237.704 92.0903 236.631 91.1291 235.394 89.7832C237.33 89.6307 238.376 87.8278 239.595 86.3974C240.352 84.8608 244.66 83.0771 245.589 78.8277C246.763 77.6205 249.161 75.424 249.489 73.9095L249.186 73.5148L247.799 73.3799L248.06 73.0905C248.648 73.1304 249.109 73.0035 249.685 72.8921L249.888 72.8297C251.444 72.336 251.622 72.2461 252.375 70.8198Z"/><defs><linearGradient id="gradient_9" gradientUnits="userSpaceOnUse" x1="173.74844" y1="227.95723" x2="182.22658" y2="166.50385"><stop offset="0" stop-color="#05A9D5"/><stop offset="1" stop-color="#04CAE5"/></linearGradient></defs><path fill="url(#gradient_9)" d="M154.996 169.085C160.627 168.81 167.801 169.003 173.539 169.008L207.791 169.009C207.779 172.998 207.832 176.986 207.95 180.973C201.625 180.828 194.739 181.055 188.636 180.813C188.972 183.209 188.863 188.645 188.868 191.291L188.894 210.526C188.911 216.666 188.896 222.806 188.847 228.945C183.732 228.989 178.677 228.913 173.538 228.991C173.406 219.292 173.362 209.592 173.405 199.892C173.402 193.955 173.224 186.806 173.504 180.953C167.217 180.74 160.93 180.902 154.634 180.898C154.428 179.031 154.175 170.293 154.996 169.085Z"/><defs><linearGradient id="gradient_10" gradientUnits="userSpaceOnUse" x1="305.12814" y1="176.96649" x2="331.14578" y2="104.14912"><stop offset="0" stop-color="#285786"/><stop offset="1" stop-color="#326E9A"/></linearGradient></defs><path fill="url(#gradient_10)" d="M284.426 111.512C284.333 109.664 283.952 106.503 284.812 104.978C286.078 104.628 295.905 104.745 297.847 104.744L328.115 104.752C334.484 104.79 338.39 105.014 343.163 109.737C349.037 115.547 348.425 122.901 348.444 130.519C348.455 134.768 348.439 139.002 348.435 143.235L348.353 190.59C347.689 188.755 347.694 186.828 347.74 184.921L347.747 185.457C347.762 186.905 347.867 186.647 347.147 188.099L347.174 187.886C346.569 188.809 345.817 190.207 344.716 190.445C344.516 189.871 344.367 189.405 344.199 188.822C343.908 190.008 343.61 190.158 342.485 190.576C341.943 189.307 342.016 187.491 341.82 186.024C341.817 187.963 342.029 192.941 341.348 194.385C340.938 190.418 341.197 179.609 341.198 175.113L341.192 137.067C341.19 131.563 341.595 125.157 340.886 119.73C340.401 116.643 336.551 112.044 333.366 111.766C328.489 111.339 323.2 111.509 318.311 111.512L284.426 111.512Z"/><path fill="#04B9DC" d="M132.894 169.068C137.687 168.826 142.798 169.141 147.595 169.156C147.865 182.69 147.512 196.572 147.705 210.161C147.742 212.768 147.877 227.467 147.603 228.976C142.75 228.853 137.527 228.933 132.643 228.931C132.44 224.241 132.441 170.148 132.894 169.068Z"/><defs><linearGradient id="gradient_11" gradientUnits="userSpaceOnUse" x1="241.3792" y1="114.09698" x2="258.66132" y2="16.015791"><stop offset="0" stop-color="#295686"/><stop offset="1" stop-color="#3D7FAE"/></linearGradient></defs><path fill="url(#gradient_11)" d="M83.1799 36.6877C94.4519 31.4075 105.795 32.0124 117.867 32.0093L145.234 32.0088L228.526 31.9999L309.547 32.0831L335.222 32.0556C347.869 32.0218 355.364 31.4812 367.468 35.8466C383.705 41.8552 396.888 54.0727 404.113 69.8077C412.149 87.0968 410.721 98.5504 410.761 117.095C410.778 125.437 410.966 134.464 410.729 142.756C410.353 141.603 410.386 139.72 410.345 138.445C410.024 139.025 409.606 142.764 409.484 143.668C409.233 142.158 409.305 140.06 409.309 138.479C408.965 139.513 408.688 140.567 408.109 141.477L407.575 141.573C405.648 138.732 404.386 133.741 403.438 130.526C401.802 124.976 402.608 92.2589 400.52 90.034C399.661 87.7033 399.11 83.9448 398.344 81.2472C392.552 60.8539 372.359 43.4465 351.109 41.6283C340.258 40.6999 327.442 41.2291 316.384 41.2262L247.112 41.4666L151.607 41.4634L120.272 41.4611C110.305 41.4636 101.472 40.7251 91.7718 43.5724C89.3193 42.7467 88.4838 44.325 85.9848 44.6974C85.112 44.8251 84.4975 43.8746 83.7918 43.353C80.7698 41.1197 80.5764 39.2607 83.1799 36.6877Z"/><defs><linearGradient id="gradient_12" gradientUnits="userSpaceOnUse" x1="326.61832" y1="478.64584" x2="341.1937" y2="486.237"><stop offset="0" stop-color="black"/><stop offset="1" stop-color="#02051F"/></linearGradient></defs><path fill="url(#gradient_12)" d="M335.604 471.755L339.16 471.664C339.37 477.596 339.252 486.567 339.144 492.62C337.66 492.726 336.927 492.556 335.62 492.565C332.262 492.586 330.985 493.312 327.71 492.298C326.45 491.491 325.75 491.035 324.93 489.693C323.711 487.678 323.352 485.258 323.935 482.976C325.417 477.218 330.121 476.998 334.861 478.333C335.17 476.423 334.756 472.758 335.604 471.755ZM332.527 489.393C336.387 486.952 336.136 480.942 330.28 480.995C326.818 484.29 327.358 489.705 332.527 489.393Z"/><path fill="#000005" d="M153.513 472.641C158.191 472.817 163.098 472.742 167.795 472.738L167.739 476.758C164.548 476.565 161.359 476.852 158.058 476.587C158.028 478.025 158.034 479.463 158.074 480.901C160.827 481.004 163.958 480.917 166.744 480.891C166.683 482.202 166.71 483.265 166.748 484.572C164.475 484.48 161.377 484.635 159.033 484.692C158.412 484.57 158.717 484.563 158.118 484.828C157.745 486.088 157.951 487.637 158.023 488.991C161.539 489.186 164.803 488.697 168.288 489.052L168.365 492.764C164.147 493.036 157.936 492.916 153.563 492.961C153.629 486.188 153.612 479.414 153.513 472.641Z"/><defs><linearGradient id="gradient_13" gradientUnits="userSpaceOnUse" x1="151.50314" y1="476.94998" x2="134.48888" y2="488.27274"><stop offset="0" stop-color="black"/><stop offset="1" stop-color="#030821"/></linearGradient></defs><path fill="url(#gradient_13)" d="M135.937 472.548C138.95 473.018 146.445 472.75 149.932 472.761C150.033 473.884 150.04 475.337 150.075 476.493C147.287 476.671 143.14 476.846 140.419 476.62C140.446 478 140.362 479.424 140.306 480.806C142.216 480.808 143.992 480.666 145.889 480.574C149.182 480.415 149.074 482.187 149.086 484.6C146.809 484.66 142.206 484.936 140.254 484.418C140.507 486.264 140.443 487.149 140.348 489.033L150.573 489.065L150.54 492.933C146.019 492.74 140.598 492.85 136.016 492.805C136.066 486.053 136.04 479.3 135.937 472.548Z"/><path fill="#000005" d="M195.987 472.567C199.691 472.899 206.055 472.678 210.035 472.699L210.092 476.485C207.541 476.675 202.933 476.795 200.433 476.527C200.485 477.9 200.456 479.43 200.459 480.816C203.541 480.998 206.174 481.001 209.267 480.976C209.338 482.192 209.517 483.336 209.147 484.47C207.481 484.772 202.085 484.659 200.313 484.466C200.436 486.416 200.408 487.09 200.2 489.037C203.533 488.895 207.159 488.908 210.515 488.856C210.585 490.066 210.511 491.485 210.481 492.712L196.168 492.75C195.877 486.352 196.155 479.119 195.987 472.567Z"/><defs><linearGradient id="gradient_14" gradientUnits="userSpaceOnUse" x1="237.68964" y1="481.38992" x2="220.67758" y2="484.21207"><stop offset="0" stop-color="black"/><stop offset="1" stop-color="#000217"/></linearGradient></defs><path fill="url(#gradient_14)" d="M227.905 472.532C230.834 472.284 239.106 472.72 236.801 477.499C235.021 478.945 233.852 477.679 232.399 476.501C230.787 476.485 229.794 476.324 228.221 477.042C223.248 479.311 223.559 487.431 229.035 488.791C231.385 489.374 233.066 488.379 234.981 487.09C236.402 487.658 237.448 488.69 237.437 490.253C236.773 491.423 235.414 492.082 234.172 492.534C220.29 497.588 213.846 476.947 227.905 472.532Z"/><path fill="#000005" d="M314.465 477.394C318.427 477.61 320.944 479.607 322.371 483.486C322.684 484.338 322.589 484.976 322.171 485.764C320.648 487.128 314.334 486.482 311.78 486.454L311.435 486.814C311.439 487 311.428 487.164 311.519 487.313C313.801 491.049 315.885 488.785 318.999 488.438C319.423 488.625 319.789 488.787 320.096 488.923C320.645 490.05 320.808 490.429 320.244 491.584C319.214 492.415 318.176 492.647 316.855 492.921C309.339 494.481 304.093 486.651 308.336 480.273C309.707 478.212 312.063 477.628 314.465 477.394ZM310.572 483.867C312.821 483.555 313.78 483.538 316.06 483.597C317.255 483.633 317.119 483.832 317.802 483.255C317.569 481.299 315.336 480.713 313.634 480.821C312.094 481.706 311.63 482.439 310.572 483.867Z"/><path fill="#000005" d="M245.177 477.331C249.748 476.921 252.842 479.31 254.221 483.678C254.5 484.56 254.357 485.111 253.867 485.862C252.403 486.873 245.23 486.529 242.959 486.55C247.658 491.686 246.755 488.597 251.389 488.501C252.321 489.392 252.688 489.632 252.323 490.916C251.529 491.83 250.442 492.451 249.299 492.834C247.269 493.499 245.056 493.32 243.16 492.337C241.274 491.383 239.875 489.681 239.303 487.647C237.947 482.898 240.224 478.536 245.177 477.331ZM242.62 483.919C244.258 483.864 246.396 483.725 247.974 483.92C249.109 483.98 249.056 484.175 249.757 483.659C249.644 481.732 247.415 480.773 245.659 480.781C244.102 481.829 243.767 482.43 242.62 483.919Z"/><path fill="#000005" d="M179.004 472.644L193.019 472.733C193.111 473.959 193.089 475.34 193.101 476.581C189.894 476.639 186.687 476.667 183.48 476.664L183.481 481.829C185.423 481.769 189.937 481.163 191.569 482.073C191.958 482.29 191.934 482.859 192.043 483.422C192.08 484.18 192.152 484.388 191.78 485.057C190.121 486.029 185.649 485.59 183.455 485.546C183.683 487.507 183.523 490.737 183.482 492.801C182.183 492.662 180.464 492.707 179.116 492.705C178.997 486.046 179.117 479.343 179.004 472.644Z"/><path fill="#000005" d="M117.228 472.765C122.625 472.678 128.024 472.652 133.422 472.686L133.438 476.738L127.741 476.675C127.9 480.264 127.766 484.726 127.755 488.38L127.669 492.884C126.293 492.742 124.658 492.793 123.252 492.799C123.063 487.47 123.208 482.126 122.996 476.743C120.866 476.768 119.165 476.731 117.04 476.602C117.147 475.337 117.178 474.036 117.228 472.765Z"/><path fill="#000005" d="M293.205 471.457C295.072 471.418 295.918 471.395 297.176 472.911C297.349 475.738 294.252 474.561 293.092 475.667C292.682 476.48 292.702 476.435 292.73 477.351C293.444 478.02 294.308 477.892 295.546 478.142C296.61 479.077 296.804 480.13 295.888 481.24C294.838 481.664 293.836 481.452 292.675 481.355C292.874 484.715 292.639 489.435 292.509 492.825C291.198 492.715 289.721 492.772 288.393 492.785C288.222 490.328 288.53 483.099 287.94 481.549C286.092 481.071 285.224 479.44 286.324 477.92C291.74 476.928 285.359 472.647 293.205 471.457Z"/><path fill="#000005" d="M269.297 474.037L273.052 474.097L273.131 477.609C274.431 477.708 275.822 477.597 276.645 478.447C276.877 479.539 276.902 479.595 276.735 480.679C275.674 481.831 275.072 480.536 273.459 481.706C273.031 482.883 272.918 486.895 273.508 488.194C274.33 489.106 275.58 489.168 276.771 489.685C277.529 490.472 277.468 490.83 277.644 491.979C277.326 492.256 276.971 492.49 276.59 492.672C275.135 493.364 273.591 493.355 272.065 492.871C267.213 491.334 269.954 484.013 268.852 481.542C268.006 481.26 267.929 481.252 267.225 480.728C266.743 479.81 266.804 479.676 266.83 478.595C267.28 477.882 267.737 477.951 268.729 477.647C269.181 476.974 269.106 475.192 269.297 474.037Z"/><path fill="#000005" d="M110.382 472.73L114.992 472.704C115.049 478.956 115.171 486.774 114.831 492.932C113.362 492.69 111.96 492.81 110.471 492.871C110.027 488.111 110.196 477.636 110.382 472.73Z"/><path fill="#000005" d="M257.141 477.52C257.719 477.563 259.277 477.671 259.636 477.986C261.738 479.829 264.212 476.069 265.912 477.954C266.137 479.058 265.847 479.878 265.4 480.878C264.648 481.599 263.681 481.591 262.593 481.762C261.029 484.388 260.987 485.165 260.858 488.111L260.635 492.803C259.272 492.645 257.957 492.683 256.586 492.684C256.55 490.068 255.991 478.908 257.141 477.52Z"/><path fill="#000005" d="M300.654 477.405C301.075 477.418 301.496 477.436 301.917 477.457C302.933 477.514 303.433 477.457 304.013 478.099C304.319 479.856 304.48 491.463 303.959 492.736L300.008 492.748C300.161 489.748 299.488 478.9 300.654 477.405Z"/><path fill="#000005" d="M280.099 477.519C280.524 477.521 280.949 477.527 281.373 477.539C282.534 477.574 283.114 477.537 283.907 478.372C284.191 480.019 284.238 491.69 283.849 492.813C282.619 492.762 281.292 492.765 280.052 492.743C280.037 488.363 279.796 481.706 280.099 477.519Z"/><path fill="#000005" d="M281.265 470.629C282.228 470.349 283.267 470.633 283.954 471.363C284.641 472.093 284.861 473.147 284.523 474.091C284.186 475.035 283.348 475.711 282.353 475.84C280.97 476.019 279.682 475.104 279.396 473.738C279.111 472.372 279.926 471.018 281.265 470.629Z"/><path fill="#000005" d="M301.68 470.695C303.05 470.438 304.384 471.286 304.733 472.635C305.082 473.984 304.326 475.373 303.003 475.812C302.065 476.124 301.03 475.886 300.322 475.197C299.613 474.507 299.347 473.48 299.633 472.533C299.919 471.586 300.708 470.877 301.68 470.695Z"/><path fill="#000005" fill-opacity="0.68627453" d="M207.16 486.078L207.705 486.159C207.752 486.426 207.751 486.273 207.652 486.614C206.815 486.895 204.974 486.841 204.01 486.857L202.911 486.595L202.971 486.343C204.479 486.029 205.626 486.081 207.16 486.078Z"/></svg>